<svg width="593" height="593" viewBox="0 0 593 593" fill="none" xmlns="http://www.w3.org/2000/svg">
<path d="M456.324 569.492C456.324 556.911 446.125 546.712 433.544 546.712C420.963 546.712 410.764 556.911 410.764 569.492C410.764 582.073 420.963 592.271 433.544 592.271C446.125 592.271 456.324 582.073 456.324 569.492Z" fill="#808080" fill-opacity="0.3"/>
<path d="M593.002 569.492C593.002 556.911 582.803 546.712 570.222 546.712C557.641 546.712 547.442 556.911 547.442 569.492C547.442 582.073 557.641 592.271 570.222 592.271C582.803 592.271 593.002 582.073 593.002 569.492Z" fill="#808080" fill-opacity="0.3"/>
<path d="M182.968 432.814C182.968 420.233 172.769 410.034 160.188 410.034C147.607 410.034 137.408 420.233 137.408 432.814C137.408 445.395 147.607 455.594 160.188 455.594C172.769 455.594 182.968 445.395 182.968 432.814Z" fill="#808080" fill-opacity="0.3"/>
<path d="M319.646 432.814C319.646 420.233 309.447 410.034 296.866 410.034C284.285 410.034 274.086 420.233 274.086 432.814C274.086 445.395 284.285 455.593 296.866 455.593C309.447 455.593 319.646 445.395 319.646 432.814Z" fill="#808080" fill-opacity="0.3"/>
<path d="M456.324 432.814C456.324 420.233 446.125 410.034 433.544 410.034C420.963 410.034 410.764 420.233 410.764 432.814C410.764 445.395 420.963 455.593 433.544 455.593C446.125 455.593 456.324 445.395 456.324 432.814Z" fill="#808080" fill-opacity="0.3"/>
<path d="M593.002 432.814C593.002 420.233 582.803 410.034 570.222 410.034C557.641 410.034 547.442 420.233 547.442 432.814C547.442 445.395 557.641 455.593 570.222 455.593C582.803 455.593 593.002 445.395 593.002 432.814Z" fill="#808080" fill-opacity="0.3"/>
<path d="M182.968 296.136C182.968 283.555 172.769 273.356 160.188 273.356C147.607 273.356 137.408 283.555 137.408 296.136C137.408 308.717 147.607 318.916 160.188 318.916C172.769 318.916 182.968 308.717 182.968 296.136Z" fill="#808080" fill-opacity="0.3"/>
<path d="M319.646 296.136C319.646 283.555 309.447 273.356 296.866 273.356C284.285 273.356 274.086 283.555 274.086 296.136C274.086 308.717 284.285 318.915 296.866 318.915C309.447 318.915 319.646 308.717 319.646 296.136Z" fill="#808080" fill-opacity="0.3"/>
<path d="M456.324 296.136C456.324 283.555 446.125 273.356 433.544 273.356C420.963 273.356 410.764 283.555 410.764 296.136C410.764 308.717 420.963 318.915 433.544 318.915C446.125 318.915 456.324 308.717 456.324 296.136Z" fill="#808080" fill-opacity="0.3"/>
<path d="M593.002 296.136C593.002 283.555 582.803 273.356 570.222 273.356C557.641 273.356 547.442 283.555 547.442 296.136C547.442 308.717 557.641 318.915 570.222 318.915C582.803 318.915 593.002 308.717 593.002 296.136Z" fill="#808080" fill-opacity="0.3"/>
<path d="M46.2898 159.458C46.2898 146.877 36.091 136.678 23.5101 136.678C10.9293 136.678 0.730469 146.877 0.730469 159.458C0.730469 172.039 10.9293 182.238 23.5101 182.238C36.091 182.238 46.2898 172.039 46.2898 159.458Z" fill="#808080" fill-opacity="0.3"/>
<path d="M182.968 159.458C182.968 146.877 172.769 136.678 160.188 136.678C147.607 136.678 137.408 146.877 137.408 159.458C137.408 172.039 147.607 182.237 160.188 182.237C172.769 182.237 182.968 172.039 182.968 159.458Z" fill="#808080" fill-opacity="0.3"/>
<path d="M319.646 159.458C319.646 146.877 309.447 136.678 296.866 136.678C284.285 136.678 274.086 146.877 274.086 159.458C274.086 172.039 284.285 182.237 296.866 182.237C309.447 182.237 319.646 172.039 319.646 159.458Z" fill="#808080" fill-opacity="0.3"/>
<path d="M456.324 159.458C456.324 146.877 446.125 136.678 433.544 136.678C420.963 136.678 410.764 146.877 410.764 159.458C410.764 172.039 420.963 182.237 433.544 182.237C446.125 182.237 456.324 172.039 456.324 159.458Z" fill="#808080" fill-opacity="0.3"/>
<path d="M593.002 159.458C593.002 146.877 582.803 136.678 570.222 136.678C557.641 136.678 547.442 146.877 547.442 159.458C547.442 172.039 557.641 182.237 570.222 182.237C582.803 182.237 593.002 172.039 593.002 159.458Z" fill="#808080" fill-opacity="0.3"/>
<path d="M46.2898 22.7799C46.2898 10.1991 36.091 0.000284553 23.5101 0.000284553C10.9293 0.000284553 0.730469 10.1991 0.730469 22.7799C0.730469 35.3608 10.9293 45.5596 23.5101 45.5596C36.091 45.5596 46.2898 35.3608 46.2898 22.7799Z" fill="#808080" fill-opacity="0.3"/>
<path d="M182.968 22.7801C182.968 10.1992 172.769 0.000393218 160.188 0.000393218C147.607 0.000393218 137.408 10.1992 137.408 22.7801C137.408 35.3609 147.607 45.5597 160.188 45.5597C172.769 45.5597 182.968 35.3609 182.968 22.7801Z" fill="#808080" fill-opacity="0.3"/>
<path d="M319.646 22.7801C319.646 10.1992 309.447 0.000393218 296.866 0.000393218C284.285 0.000393218 274.086 10.1992 274.086 22.7801C274.086 35.3609 284.285 45.5597 296.866 45.5597C309.447 45.5597 319.646 35.3609 319.646 22.7801Z" fill="#808080" fill-opacity="0.3"/>
<path d="M456.324 22.7801C456.324 10.1992 446.125 0.000393218 433.544 0.000393218C420.963 0.000393218 410.764 10.1992 410.764 22.7801C410.764 35.3609 420.963 45.5597 433.544 45.5597C446.125 45.5597 456.324 35.3609 456.324 22.7801Z" fill="#808080" fill-opacity="0.3"/>
<path d="M593.002 22.7801C593.002 10.1992 582.803 0.000393218 570.222 0.000393218C557.641 0.000393218 547.442 10.1992 547.442 22.7801C547.442 35.3609 557.641 45.5597 570.222 45.5597C582.803 45.5597 593.002 35.3609 593.002 22.7801Z" fill="#808080" fill-opacity="0.3"/>
</svg>
