<svg width="593" height="593" viewBox="0 0 593 593" fill="none" xmlns="http://www.w3.org/2000/svg">
<path d="M137.407 570.205C137.407 557.624 147.606 547.425 160.186 547.425C172.767 547.425 182.966 557.624 182.966 570.205C182.966 582.786 172.767 592.984 160.186 592.984C147.606 592.984 137.407 582.786 137.407 570.205Z" fill="#808080" fill-opacity="0.3"/>
<path d="M0.7288 570.205C0.7288 557.624 10.9276 547.425 23.5084 547.425C36.0893 547.425 46.2881 557.624 46.2881 570.205C46.2881 582.786 36.0893 592.984 23.5084 592.984C10.9276 592.984 0.7288 582.786 0.7288 570.205Z" fill="#808080" fill-opacity="0.3"/>
<path d="M410.763 433.527C410.763 420.946 420.962 410.747 433.542 410.747C446.123 410.747 456.322 420.946 456.322 433.527C456.322 446.108 446.123 456.306 433.542 456.306C420.962 456.306 410.763 446.108 410.763 433.527Z" fill="#808080" fill-opacity="0.3"/>
<path d="M274.085 433.527C274.085 420.946 284.284 410.747 296.864 410.747C309.445 410.747 319.644 420.946 319.644 433.527C319.644 446.108 309.445 456.306 296.864 456.306C284.284 456.306 274.085 446.108 274.085 433.527Z" fill="#808080" fill-opacity="0.3"/>
<path d="M137.407 433.527C137.407 420.946 147.606 410.747 160.186 410.747C172.767 410.747 182.966 420.946 182.966 433.527C182.966 446.108 172.767 456.306 160.186 456.306C147.606 456.306 137.407 446.108 137.407 433.527Z" fill="#808080" fill-opacity="0.3"/>
<path d="M0.728836 433.527C0.728836 420.946 10.9276 410.747 23.5085 410.747C36.0893 410.747 46.2882 420.946 46.2882 433.527C46.2882 446.108 36.0893 456.306 23.5085 456.306C10.9276 456.306 0.728836 446.108 0.728836 433.527Z" fill="#808080" fill-opacity="0.3"/>
<path d="M410.763 296.849C410.763 284.268 420.962 274.069 433.542 274.069C446.123 274.069 456.322 284.268 456.322 296.849C456.322 309.43 446.123 319.628 433.542 319.628C420.962 319.628 410.763 309.43 410.763 296.849Z" fill="#808080" fill-opacity="0.3"/>
<path d="M274.085 296.849C274.085 284.268 284.284 274.069 296.864 274.069C309.445 274.069 319.644 284.268 319.644 296.849C319.644 309.43 309.445 319.628 296.864 319.628C284.284 319.628 274.085 309.43 274.085 296.849Z" fill="#808080" fill-opacity="0.3"/>
<path d="M137.407 296.849C137.407 284.268 147.606 274.069 160.186 274.069C172.767 274.069 182.966 284.268 182.966 296.849C182.966 309.43 172.767 319.628 160.186 319.628C147.606 319.628 137.407 309.43 137.407 296.849Z" fill="#808080" fill-opacity="0.3"/>
<path d="M0.728836 296.849C0.728836 284.268 10.9276 274.069 23.5085 274.069C36.0893 274.069 46.2882 284.268 46.2882 296.849C46.2882 309.43 36.0893 319.628 23.5085 319.628C10.9276 319.628 0.728836 309.43 0.728836 296.849Z" fill="#808080" fill-opacity="0.3"/>
<path d="M547.441 160.171C547.441 147.59 557.639 137.391 570.22 137.391C582.801 137.391 593 147.59 593 160.171C593 172.752 582.801 182.95 570.22 182.95C557.639 182.95 547.441 172.752 547.441 160.171Z" fill="#808080" fill-opacity="0.3"/>
<path d="M410.763 160.171C410.763 147.59 420.962 137.391 433.542 137.391C446.123 137.391 456.322 147.59 456.322 160.171C456.322 172.752 446.123 182.95 433.542 182.95C420.962 182.95 410.763 172.752 410.763 160.171Z" fill="#808080" fill-opacity="0.3"/>
<path d="M274.085 160.171C274.085 147.59 284.284 137.391 296.864 137.391C309.445 137.391 319.644 147.59 319.644 160.171C319.644 172.752 309.445 182.95 296.864 182.95C284.284 182.95 274.085 172.752 274.085 160.171Z" fill="#808080" fill-opacity="0.3"/>
<path d="M137.407 160.171C137.407 147.59 147.606 137.391 160.186 137.391C172.767 137.391 182.966 147.59 182.966 160.171C182.966 172.752 172.767 182.95 160.186 182.95C147.606 182.95 137.407 172.752 137.407 160.171Z" fill="#808080" fill-opacity="0.3"/>
<path d="M0.7288 160.171C0.7288 147.59 10.9276 137.391 23.5084 137.391C36.0893 137.391 46.2881 147.59 46.2881 160.171C46.2881 172.752 36.0893 182.95 23.5084 182.95C10.9276 182.95 0.7288 172.752 0.7288 160.171Z" fill="#808080" fill-opacity="0.3"/>
<path d="M547.441 23.4928C547.441 10.912 557.639 0.713175 570.22 0.713175C582.801 0.713175 593 10.912 593 23.4928C593 36.0737 582.801 46.2725 570.22 46.2725C557.639 46.2725 547.441 36.0737 547.441 23.4928Z" fill="#808080" fill-opacity="0.3"/>
<path d="M410.763 23.493C410.763 10.9121 420.962 0.713284 433.542 0.713284C446.123 0.713284 456.322 10.9121 456.322 23.493C456.322 36.0738 446.123 46.2726 433.542 46.2726C420.962 46.2726 410.763 36.0738 410.763 23.493Z" fill="#808080" fill-opacity="0.3"/>
<path d="M274.085 23.493C274.085 10.9121 284.284 0.713284 296.864 0.713284C309.445 0.713284 319.644 10.9121 319.644 23.493C319.644 36.0738 309.445 46.2726 296.864 46.2726C284.284 46.2726 274.085 36.0738 274.085 23.493Z" fill="#808080" fill-opacity="0.3"/>
<path d="M137.407 23.493C137.407 10.9121 147.606 0.713284 160.186 0.713284C172.767 0.713284 182.966 10.9121 182.966 23.493C182.966 36.0738 172.767 46.2726 160.186 46.2726C147.606 46.2726 137.407 36.0738 137.407 23.493Z" fill="#808080" fill-opacity="0.3"/>
<path d="M0.7288 23.493C0.7288 10.9121 10.9276 0.713284 23.5084 0.713284C36.0893 0.713284 46.2881 10.9121 46.2881 23.493C46.2881 36.0738 36.0893 46.2726 23.5084 46.2726C10.9276 46.2726 0.7288 36.0738 0.7288 23.493Z" fill="#808080" fill-opacity="0.3"/>
</svg>
