<svg width="593" height="593" viewBox="0 0 593 593" fill="none" xmlns="http://www.w3.org/2000/svg">
<path d="M136.678 23.1371C136.678 35.7179 146.877 45.9167 159.458 45.9167C172.039 45.9167 182.238 35.7179 182.238 23.1371C182.238 10.5562 172.039 0.357422 159.458 0.357422C146.877 0.357422 136.678 10.5562 136.678 23.1371Z" fill="#808080" fill-opacity="0.3"/>
<path d="M0.000284553 23.1371C0.000284553 35.7179 10.1991 45.9167 22.7799 45.9167C35.3608 45.9167 45.5596 35.7179 45.5596 23.1371C45.5596 10.5562 35.3608 0.357422 22.7799 0.357422C10.1991 0.357422 0.000284553 10.5562 0.000284553 23.1371Z" fill="#808080" fill-opacity="0.3"/>
<path d="M410.034 159.815C410.034 172.396 420.233 182.595 432.814 182.595C445.395 182.595 455.594 172.396 455.594 159.815C455.594 147.234 445.395 137.035 432.814 137.035C420.233 137.035 410.034 147.234 410.034 159.815Z" fill="#808080" fill-opacity="0.3"/>
<path d="M273.356 159.815C273.356 172.396 283.555 182.595 296.136 182.595C308.717 182.595 318.916 172.396 318.916 159.815C318.916 147.234 308.717 137.035 296.136 137.035C283.555 137.035 273.356 147.234 273.356 159.815Z" fill="#808080" fill-opacity="0.3"/>
<path d="M136.678 159.815C136.678 172.396 146.877 182.595 159.458 182.595C172.039 182.595 182.238 172.396 182.238 159.815C182.238 147.234 172.039 137.035 159.458 137.035C146.877 137.035 136.678 147.234 136.678 159.815Z" fill="#808080" fill-opacity="0.3"/>
<path d="M0.000320774 159.815C0.000320774 172.396 10.1991 182.595 22.78 182.595C35.3608 182.595 45.5596 172.396 45.5596 159.815C45.5596 147.234 35.3608 137.035 22.78 137.035C10.1991 137.035 0.000320774 147.234 0.000320774 159.815Z" fill="#808080" fill-opacity="0.3"/>
<path d="M410.034 296.493C410.034 309.074 420.233 319.273 432.814 319.273C445.395 319.273 455.594 309.074 455.594 296.493C455.594 283.912 445.395 273.713 432.814 273.713C420.233 273.713 410.034 283.912 410.034 296.493Z" fill="#808080" fill-opacity="0.3"/>
<path d="M273.356 296.493C273.356 309.074 283.555 319.273 296.136 319.273C308.717 319.273 318.916 309.074 318.916 296.493C318.916 283.912 308.717 273.713 296.136 273.713C283.555 273.713 273.356 283.912 273.356 296.493Z" fill="#808080" fill-opacity="0.3"/>
<path d="M136.678 296.493C136.678 309.074 146.877 319.273 159.458 319.273C172.039 319.273 182.238 309.074 182.238 296.493C182.238 283.912 172.039 273.713 159.458 273.713C146.877 273.713 136.678 283.912 136.678 296.493Z" fill="#808080" fill-opacity="0.3"/>
<path d="M0.000320774 296.493C0.000320774 309.074 10.1991 319.273 22.78 319.273C35.3608 319.273 45.5596 309.074 45.5596 296.493C45.5596 283.912 35.3608 273.713 22.78 273.713C10.1991 273.713 0.000320774 283.912 0.000320774 296.493Z" fill="#808080" fill-opacity="0.3"/>
<path d="M546.712 433.171C546.712 445.752 556.911 455.951 569.492 455.951C582.073 455.951 592.271 445.752 592.271 433.171C592.271 420.59 582.073 410.391 569.492 410.391C556.911 410.391 546.712 420.59 546.712 433.171Z" fill="#808080" fill-opacity="0.3"/>
<path d="M410.034 433.171C410.034 445.752 420.233 455.951 432.814 455.951C445.395 455.951 455.594 445.752 455.594 433.171C455.594 420.59 445.395 410.391 432.814 410.391C420.233 410.391 410.034 420.59 410.034 433.171Z" fill="#808080" fill-opacity="0.3"/>
<path d="M273.356 433.171C273.356 445.752 283.555 455.951 296.136 455.951C308.717 455.951 318.916 445.752 318.916 433.171C318.916 420.59 308.717 410.391 296.136 410.391C283.555 410.391 273.356 420.59 273.356 433.171Z" fill="#808080" fill-opacity="0.3"/>
<path d="M136.678 433.171C136.678 445.752 146.877 455.951 159.458 455.951C172.039 455.951 182.238 445.752 182.238 433.171C182.238 420.59 172.039 410.391 159.458 410.391C146.877 410.391 136.678 420.59 136.678 433.171Z" fill="#808080" fill-opacity="0.3"/>
<path d="M0.000284553 433.171C0.000284553 445.752 10.1991 455.951 22.7799 455.951C35.3608 455.951 45.5596 445.752 45.5596 433.171C45.5596 420.59 35.3608 410.391 22.7799 410.391C10.1991 410.391 0.000284553 420.59 0.000284553 433.171Z" fill="#808080" fill-opacity="0.3"/>
<path d="M546.712 569.849C546.712 582.43 556.911 592.629 569.492 592.629C582.073 592.629 592.271 582.43 592.271 569.849C592.271 557.268 582.073 547.069 569.492 547.069C556.911 547.069 546.712 557.268 546.712 569.849Z" fill="#808080" fill-opacity="0.3"/>
<path d="M410.034 569.849C410.034 582.43 420.233 592.629 432.814 592.629C445.395 592.629 455.594 582.43 455.594 569.849C455.594 557.268 445.395 547.069 432.814 547.069C420.233 547.069 410.034 557.268 410.034 569.849Z" fill="#808080" fill-opacity="0.3"/>
<path d="M273.356 569.849C273.356 582.43 283.555 592.629 296.136 592.629C308.717 592.629 318.916 582.43 318.916 569.849C318.916 557.268 308.717 547.069 296.136 547.069C283.555 547.069 273.356 557.268 273.356 569.849Z" fill="#808080" fill-opacity="0.3"/>
<path d="M136.678 569.849C136.678 582.43 146.877 592.629 159.458 592.629C172.039 592.629 182.238 582.43 182.238 569.849C182.238 557.268 172.039 547.069 159.458 547.069C146.877 547.069 136.678 557.268 136.678 569.849Z" fill="#808080" fill-opacity="0.3"/>
<path d="M0.000284553 569.849C0.000284553 582.43 10.1991 592.629 22.7799 592.629C35.3608 592.629 45.5596 582.43 45.5596 569.849C45.5596 557.268 35.3608 547.069 22.7799 547.069C10.1991 547.069 0.000284553 557.268 0.000284553 569.849Z" fill="#808080" fill-opacity="0.3"/>
</svg>
