<svg width="140" height="38" viewBox="0 0 140 38" fill="none" xmlns="http://www.w3.org/2000/svg">
<g clip-path="url(#clip0_51_1127)">
<path d="M14.394 22.737V27.823C14.394 30.366 13.274 31.283 11.494 31.283C9.714 31.283 8.595 30.366 8.595 27.823V8.596C8.595 6.053 9.715 5.086 11.495 5.086C13.275 5.086 14.394 6.053 14.394 8.596V12.411H19.684V8.952C19.684 3.255 16.835 0 11.342 0C5.848 0 3 3.255 3 8.952V27.467C3 33.164 5.848 36.42 11.342 36.42C16.835 36.42 19.684 33.164 19.684 27.467V22.737H14.394ZM35.503 0.407L41.2 36.013H35.554L34.587 29.553H27.721L26.754 36.013H21.617L27.314 0.407H35.503ZM31.078 6.714L28.433 24.721H33.824L31.18 6.713H31.079L31.078 6.714ZM61.19 36.013H55.493C55.188 35.097 54.984 34.537 54.984 31.638V26.043C54.984 22.737 53.865 21.516 51.322 21.516H49.389V36.013H43.794V0.407H52.238C58.036 0.407 60.528 3.103 60.528 8.597V11.394C60.528 15.056 59.358 17.396 56.866 18.566C59.664 19.837 60.579 22.482 60.579 26.196V31.689C60.579 33.419 60.631 34.69 61.19 36.013ZM52.085 5.493H49.389V16.43H51.576C53.662 16.43 54.933 15.515 54.933 12.666V9.156C54.933 6.613 54.069 5.493 52.085 5.493ZM78.242 0.407L83.939 36.013H78.293L77.327 29.553H70.46L69.494 36.013H64.356L70.053 0.407H78.242ZM73.817 6.714L71.172 24.721H76.564L73.919 6.713H73.817V6.714ZM89.115 0.407H83.469L88.962 36.013H97.304L102.797 0.407H97.66L93.438 29.45H93.336L89.115 0.407ZM116.213 0.407L121.91 36.013H116.264L115.298 29.553H108.431L107.464 36.013H102.327L108.024 0.407H116.213ZM111.788 6.714L109.143 24.721H114.535L111.89 6.713H111.788V6.714ZM137.252 36.013H143V0.407H138.015V21.719H137.913L132.267 0.407H125.248V36.013H130.284V10.223H130.385L137.252 36.013Z" fill="#9C9C9C"/>
</g>
<defs>
<clipPath id="clip0_51_1127">
<rect width="140" height="38" fill="white"/>
</clipPath>
</defs>
</svg>
