<svg width="148" height="36" viewBox="0 0 148 36" fill="none" xmlns="http://www.w3.org/2000/svg">
<g clip-path="url(#clip0_51_1117)">
<path d="M51.624 35.52V0H42.648L23.88 27.408L20.712 23.424C26.376 22.56 29.544 17.568 29.544 12.24C29.544 7.152 26.76 2.88 23.016 1.248C21.144 0.432 18.36 0 14.664 0H3V35.52H11.688V24.048H11.784L19.992 35.52H29.16L32.28 30.384H42.552V35.52H51.624ZM11.688 17.856V7.968H15.144C18.552 7.968 20.856 9.696 20.856 12.768C20.856 16.032 18.696 17.856 15.096 17.856H11.688ZM42.552 23.184H36.6L42.456 13.344H42.552V23.184ZM88.03 35.52V0H79.342L79.726 22.464L65.902 0H58.078V35.52H66.766L66.526 13.824L80.158 35.52H88.03ZM114.228 35.52V27.552H103.188V21.456H113.892V13.488H103.188V7.968H114.228V0H94.5V35.52H114.228ZM150.29 35.52L137.762 17.712L149.522 0H140.018L129.986 15.984H129.89V0H120.818V35.52H129.89V20.16H129.986L139.682 35.52H150.29Z" fill="#9C9C9C"/>
</g>
<defs>
<clipPath id="clip0_51_1117">
<rect width="148" height="36" fill="white"/>
</clipPath>
</defs>
</svg>
