<svg width="20" height="21" viewBox="0 0 20 21" fill="none" xmlns="http://www.w3.org/2000/svg">
<path d="M16.667 3.34253H3.33299C2.41699 3.34253 1.67499 4.09465 1.67499 5.01425L1.66699 15.0426C1.66699 15.9622 2.41699 16.7143 3.33299 16.7143H16.667C17.583 16.7143 18.333 15.9622 18.333 15.0426V5.01425C18.333 4.09465 17.583 3.34253 16.667 3.34253ZM16.333 6.89456L10.442 10.589C10.3091 10.6711 10.1561 10.7145 9.99999 10.7145C9.84391 10.7145 9.6909 10.6711 9.55799 10.589L3.66699 6.89456C3.5846 6.84694 3.51261 6.78315 3.45534 6.70701C3.39807 6.63087 3.35668 6.54394 3.33364 6.45141C3.3106 6.35887 3.30639 6.26263 3.32126 6.16843C3.33613 6.07423 3.36977 5.984 3.42017 5.90313C3.47058 5.82225 3.53671 5.75239 3.61463 5.69771C3.69256 5.64302 3.78066 5.60465 3.8737 5.58486C3.96673 5.56508 4.06279 5.5643 4.15613 5.58256C4.24948 5.60083 4.33819 5.63776 4.41699 5.69116L9.99999 9.19306L15.583 5.69116C15.6618 5.63776 15.7505 5.60083 15.8438 5.58256C15.9372 5.5643 16.0332 5.56508 16.1263 5.58486C16.2193 5.60465 16.3074 5.64302 16.3853 5.69771C16.4633 5.75239 16.5294 5.82225 16.5798 5.90313C16.6302 5.984 16.6639 6.07423 16.6787 6.16843C16.6936 6.26263 16.6894 6.35887 16.6663 6.45141C16.6433 6.54394 16.6019 6.63087 16.5446 6.70701C16.4874 6.78315 16.4154 6.84694 16.333 6.89456Z" fill="url(#paint0_linear_51_1463)"/>
<defs>
<linearGradient id="paint0_linear_51_1463" x1="9.96159" y1="3.34253" x2="9.96159" y2="16.7143" gradientUnits="userSpaceOnUse">
<stop stop-color="#FFBB00"/>
<stop offset="1" stop-color="#E6A50C"/>
</linearGradient>
</defs>
</svg>
