<svg width="32" height="32" viewBox="0 0 32 32" fill="none" xmlns="http://www.w3.org/2000/svg">
<path d="M16 10.6667C13.0533 10.6667 10.6666 13.0534 10.6666 16C10.6666 18.9467 13.0533 21.3334 16 21.3334C18.9466 21.3334 21.3333 18.9467 21.3333 16C21.3333 13.0534 18.9466 10.6667 16 10.6667ZM27.92 14.6667C27.618 11.9629 26.4055 9.44209 24.4817 7.5183C22.5579 5.59451 20.0372 4.38206 17.3333 4.08004V2.66671C17.3333 1.93337 16.7333 1.33337 16 1.33337C15.2666 1.33337 14.6666 1.93337 14.6666 2.66671V4.08004C11.9628 4.38206 9.44203 5.59451 7.51824 7.5183C5.59445 9.44209 4.382 11.9629 4.07998 14.6667H2.66665C1.93331 14.6667 1.33331 15.2667 1.33331 16C1.33331 16.7334 1.93331 17.3334 2.66665 17.3334H4.07998C4.382 20.0372 5.59445 22.558 7.51824 24.4818C9.44203 26.4056 11.9628 27.618 14.6666 27.92V29.3334C14.6666 30.0667 15.2666 30.6667 16 30.6667C16.7333 30.6667 17.3333 30.0667 17.3333 29.3334V27.92C20.0372 27.618 22.5579 26.4056 24.4817 24.4818C26.4055 22.558 27.618 20.0372 27.92 17.3334H29.3333C30.0666 17.3334 30.6666 16.7334 30.6666 16C30.6666 15.2667 30.0666 14.6667 29.3333 14.6667H27.92ZM16 25.3334C10.84 25.3334 6.66665 21.16 6.66665 16C6.66665 10.84 10.84 6.66671 16 6.66671C21.16 6.66671 25.3333 10.84 25.3333 16C25.3333 21.16 21.16 25.3334 16 25.3334Z" fill="url(#paint0_linear_51_956)"/>
<defs>
<linearGradient id="paint0_linear_51_956" x1="15.9324" y1="1.33337" x2="15.9324" y2="30.6667" gradientUnits="userSpaceOnUse">
<stop stop-color="#FFBB00"/>
<stop offset="1" stop-color="#E6A50C"/>
</linearGradient>
</defs>
</svg>
