<svg width="32" height="32" viewBox="0 0 32 32" fill="none" xmlns="http://www.w3.org/2000/svg">
<path d="M24 10.6667H22.6667V8.00004C22.6667 4.32004 19.68 1.33337 16 1.33337C12.32 1.33337 9.33333 4.32004 9.33333 8.00004V10.6667H7.99999C6.53333 10.6667 5.33333 11.8667 5.33333 13.3334V26.6667C5.33333 28.1334 6.53333 29.3334 7.99999 29.3334H24C25.4667 29.3334 26.6667 28.1334 26.6667 26.6667V13.3334C26.6667 11.8667 25.4667 10.6667 24 10.6667ZM16 22.6667C14.5333 22.6667 13.3333 21.4667 13.3333 20C13.3333 18.5334 14.5333 17.3334 16 17.3334C17.4667 17.3334 18.6667 18.5334 18.6667 20C18.6667 21.4667 17.4667 22.6667 16 22.6667ZM12 10.6667V8.00004C12 5.78671 13.7867 4.00004 16 4.00004C18.2133 4.00004 20 5.78671 20 8.00004V10.6667H12Z" fill="url(#paint0_linear_51_961)"/>
<defs>
<linearGradient id="paint0_linear_51_961" x1="15.9508" y1="1.33337" x2="15.9508" y2="29.3334" gradientUnits="userSpaceOnUse">
<stop stop-color="#FFBB00"/>
<stop offset="1" stop-color="#E6A50C"/>
</linearGradient>
</defs>
</svg>
