<svg width="22" height="22" viewBox="0 0 22 22" fill="none" xmlns="http://www.w3.org/2000/svg">
<path d="M3.06667 5.73334C1.32105 7.47925 0.338177 9.84561 0.33318 12.3145C0.328182 14.7834 1.30146 17.1537 3.04 18.9067C5 14.3733 8.49334 10.5867 12.8533 8.33334C9.09009 11.5176 6.54976 15.9101 5.66667 20.76C9.13334 22.4 13.4 21.8 16.2667 18.9333C20.2533 14.9467 21.3733 4.08 21.6133 1.09333C21.6217 0.998434 21.6091 0.902856 21.5766 0.813325C21.544 0.723794 21.4922 0.642486 21.4249 0.575122C21.3575 0.507758 21.2762 0.455974 21.1867 0.423415C21.0971 0.390856 21.0016 0.378313 20.9067 0.386667C17.92 0.626667 7.05334 1.74667 3.06667 5.73334Z" fill="url(#paint0_linear_51_978)"/>
<defs>
<linearGradient id="paint0_linear_51_978" x1="10.9255" y1="0.384155" x2="10.9255" y2="21.6592" gradientUnits="userSpaceOnUse">
<stop stop-color="#FFBB00"/>
<stop offset="1" stop-color="#E6A50C"/>
</linearGradient>
</defs>
</svg>
