<svg width="32" height="32" viewBox="0 0 32 32" fill="none" xmlns="http://www.w3.org/2000/svg">
<path d="M25.9467 13.3333C25.8151 13.5277 25.7372 13.7534 25.7209 13.9875C25.7045 14.2216 25.7502 14.4559 25.8533 14.6667C26.184 15.4387 26.4173 16.2493 26.5467 17.08C26.8899 19.2269 26.5689 21.4273 25.6267 23.3867C25.5122 23.6016 25.3411 23.7811 25.132 23.9056C24.9228 24.0302 24.6835 24.0951 24.44 24.0933H7.57333C7.32849 24.0938 7.08824 24.0269 6.87892 23.8999C6.6696 23.7729 6.49929 23.5907 6.38666 23.3733C5.53316 21.6419 5.16552 19.7113 5.3229 17.7874C5.48029 15.8635 6.15682 14.0183 7.28037 12.4487C8.40392 10.879 9.93236 9.64362 11.7028 8.87426C13.4732 8.1049 15.4192 7.8304 17.3333 8.08C18.3018 8.19384 19.2492 8.44526 20.1467 8.82667C20.3575 8.92983 20.5918 8.97553 20.8259 8.95914C21.06 8.94275 21.2856 8.86486 21.48 8.73334C21.6825 8.59993 21.8448 8.41382 21.9494 8.19504C22.054 7.97626 22.0969 7.73309 22.0736 7.49172C22.0503 7.25034 21.9616 7.01989 21.8171 6.82518C21.6725 6.63046 21.4776 6.47886 21.2533 6.38667C18.6776 5.28221 15.8193 5.01745 13.0845 5.63C10.3498 6.24255 7.87752 7.70126 6.019 9.79891C4.16048 11.8966 3.01019 14.5265 2.73153 17.3152C2.45286 20.1038 3.05998 22.9094 4.46666 25.3333C4.69934 25.7364 5.03345 26.0715 5.43577 26.3054C5.83809 26.5393 6.29462 26.6639 6.75999 26.6667H25.2267C25.6966 26.6685 26.1586 26.5462 26.566 26.3121C26.9734 26.0779 27.3117 25.7403 27.5467 25.3333C28.5765 23.5486 29.1787 21.5494 29.3059 19.4928C29.4331 17.4362 29.082 15.3781 28.28 13.48C28.1784 13.2637 28.0206 13.0786 27.823 12.9442C27.6254 12.8098 27.3953 12.731 27.1567 12.716C26.9182 12.701 26.6801 12.7504 26.4672 12.859C26.2543 12.9676 26.0745 13.1314 25.9467 13.3333Z" fill="url(#paint0_linear_51_966)"/>
<path d="M14.12 16.7867C13.6196 17.287 13.3385 17.9657 13.3385 18.6733C13.3385 19.0237 13.4075 19.3707 13.5416 19.6944C13.6757 20.0181 13.8722 20.3122 14.12 20.56C14.3678 20.8078 14.6619 21.0043 14.9856 21.1384C15.3093 21.2725 15.6563 21.3415 16.0067 21.3415C16.7143 21.3415 17.393 21.0604 17.8933 20.56L25.44 9.23999L14.12 16.7867Z" fill="url(#paint1_linear_51_966)"/>
<defs>
<linearGradient id="paint0_linear_51_966" x1="15.937" y1="5.30762" x2="15.9369" y2="26.6667" gradientUnits="userSpaceOnUse">
<stop stop-color="#FFBB00"/>
<stop offset="1" stop-color="#E6A50C"/>
</linearGradient>
<linearGradient id="paint1_linear_51_966" x1="19.3614" y1="9.23999" x2="19.3614" y2="21.3415" gradientUnits="userSpaceOnUse">
<stop stop-color="#FFBB00"/>
<stop offset="1" stop-color="#E6A50C"/>
</linearGradient>
</defs>
</svg>
