<svg width="126" height="32" viewBox="0 0 126 32" fill="none" xmlns="http://www.w3.org/2000/svg">
<path d="M4.66941 13.196C5.26976 12.236 6.09247 11.456 7.13753 10.856C8.20482 10.256 9.41665 9.956 10.773 9.956C12.3517 9.956 13.7748 10.376 15.0422 11.216C16.3318 12.056 17.3435 13.256 18.0773 14.816C18.8333 16.352 19.2113 18.14 19.2113 20.18C19.2113 22.22 18.8333 24.032 18.0773 25.616C17.3435 27.176 16.3318 28.388 15.0422 29.252C13.7748 30.116 12.3517 30.548 10.773 30.548C9.39441 30.548 8.18259 30.26 7.13753 29.684C6.11471 29.084 5.292 28.316 4.66941 27.38V30.224H0V3.584H4.66941V13.196ZM14.4418 20.18C14.4418 18.98 14.2084 17.948 13.7414 17.084C13.2967 16.196 12.6964 15.524 11.9404 15.068C11.2107 14.6131 10.3816 14.377 9.53894 14.384C8.694 14.384 7.89353 14.624 7.13753 15.104C6.40376 15.56 5.80341 16.232 5.33647 17.12C4.89176 18.008 4.66941 19.052 4.66941 20.252C4.66941 21.452 4.89176 22.496 5.33647 23.384C5.80341 24.272 6.40376 24.956 7.13753 25.436C7.89353 25.892 8.694 26.12 9.53894 26.12C10.4061 26.12 11.2066 25.88 11.9404 25.4C12.6964 24.92 13.2967 24.236 13.7414 23.348C14.2084 22.46 14.4418 21.404 14.4418 20.18ZM24.9721 7.904C24.1494 7.904 23.4601 7.628 22.9042 7.076C22.3706 6.5 22.1037 5.792 22.1037 4.952C22.1037 4.112 22.3706 3.416 22.9042 2.864C23.4601 2.288 24.1494 2 24.9721 2C25.7948 2 26.473 2.288 27.0066 2.864C27.5625 3.416 27.8404 4.112 27.8404 4.952C27.8404 5.792 27.5625 6.5 27.0066 7.076C26.473 7.628 25.7948 7.904 24.9721 7.904ZM27.2734 10.28V30.224H22.604V10.28H27.2734ZM42.827 30.224L36.5567 21.728V30.224H31.8873V3.584H36.5567V18.74L42.7603 10.28H48.8306L40.6924 20.288L48.8973 30.224H42.827ZM49.2373 20.252C49.2373 18.188 49.6264 16.388 50.4046 14.852C51.1829 13.292 52.2613 12.092 53.6399 11.252C55.0185 10.388 56.5972 9.956 58.376 9.956C60.6662 9.956 62.5562 10.58 64.046 11.828C65.558 13.052 66.5697 14.78 67.0811 17.012H62.0457C61.7789 16.148 61.3231 15.476 60.6783 14.996C60.0557 14.492 59.2774 14.24 58.3436 14.24C57.0094 14.24 55.9533 14.768 55.175 15.824C54.3968 16.856 54.0077 18.332 54.0077 20.252C54.0077 22.148 54.3968 23.624 55.175 24.68C55.9533 25.712 57.0094 26.228 58.3436 26.228C60.2336 26.228 61.4676 25.316 62.0457 23.492H67.082C66.5706 25.652 65.5589 27.368 64.0469 28.64C62.5349 29.912 60.6449 30.548 58.3769 30.548C56.5981 30.548 55.0194 30.128 53.6408 29.288C52.2731 28.4362 51.1528 27.1895 50.4056 25.688C49.6273 24.128 49.2373 22.316 49.2373 20.252ZM74.2455 13.376C74.8181 12.3495 75.621 11.4952 76.5802 10.892C77.5586 10.292 78.6703 9.992 79.9155 9.992V15.284H78.6814C77.2139 15.284 76.1021 15.656 75.3461 16.4C74.6124 17.144 74.2455 18.44 74.2455 20.288V30.224H69.5761V10.28H74.2455V13.376ZM94.2332 27.38C93.7218 28.292 92.8879 29.06 91.7317 29.684C90.5755 30.284 89.3303 30.584 87.9962 30.584C86.8399 30.584 85.7949 30.332 84.861 29.828C83.9271 29.324 83.1934 28.628 82.6597 27.74C82.1261 26.852 81.8592 25.832 81.8592 24.68C81.8592 22.832 82.4929 21.32 83.7604 20.144C85.05 18.968 86.9734 18.38 89.5304 18.38H94.2332C94.1887 17.108 93.8441 16.1 93.1992 15.356C92.5766 14.588 91.7095 14.204 90.5977 14.204C89.6194 14.204 88.8078 14.492 88.1629 15.068C87.5181 15.62 87.1068 16.4 86.9289 17.408H82.2595C82.4818 15.968 82.9599 14.684 83.6936 13.556C84.4431 12.41 85.4541 11.4923 86.6287 10.892C87.8516 10.244 89.2191 9.92 90.7311 9.92C92.2876 9.92 93.6884 10.268 94.9336 10.964C96.1704 11.6289 97.2016 12.6669 97.902 13.952C98.6135 15.248 98.9693 16.772 98.9693 18.524V30.224H94.2332V27.38ZM89.3636 26.516C90.1419 26.516 90.8979 26.336 91.6316 25.976C92.3876 25.616 93.0102 25.076 93.4994 24.356C93.9886 23.636 94.2332 22.784 94.2332 21.8V21.656H89.7972C88.7299 21.656 87.9295 21.884 87.3958 22.34C86.8844 22.796 86.6287 23.396 86.6287 24.14C86.6287 24.86 86.8622 25.436 87.3291 25.868C87.8183 26.3 88.4965 26.516 89.3636 26.516ZM108.817 14.42V30.224H104.081V14.42H101.979V10.28H104.081V9.272C104.081 6.824 104.725 5.024 106.015 3.872C107.305 2.72 109.25 2.18 111.852 2.252V6.5C110.718 6.476 109.929 6.68 109.484 7.112C109.039 7.544 108.817 8.324 108.817 9.452V10.28H114.885V5.348H119.588V10.28H123.724V14.42H119.588V24.068C119.588 24.74 119.732 25.232 120.021 25.544C120.333 25.832 120.844 25.976 121.556 25.976H123.724V30.224H120.789C116.853 30.224 114.885 28.16 114.885 24.032V14.42H108.817Z" fill="white"/>
</svg>
