<svg width="129" height="39" viewBox="0 0 129 39" fill="none" xmlns="http://www.w3.org/2000/svg">
<path d="M0.631958 4.01602C1.43196 4.04802 2.50396 4.08002 3.84796 4.11202C5.22396 4.14402 6.58396 4.16002 7.92796 4.16002C9.46396 4.16002 10.952 4.14402 12.392 4.11202C13.832 4.08002 14.856 4.06402 15.464 4.06402C19.912 4.06402 23.24 4.94402 25.448 6.70402C27.656 8.46402 28.76 10.736 28.76 13.52C28.76 14.672 28.536 15.888 28.088 17.168C27.64 18.416 26.872 19.584 25.784 20.672C24.728 21.728 23.272 22.592 21.416 23.264C19.56 23.936 17.224 24.272 14.408 24.272H9.51196V23.312H13.928C15.816 23.312 17.24 22.88 18.2 22.016C19.192 21.152 19.864 20.016 20.216 18.608C20.6 17.2 20.792 15.68 20.792 14.048C20.792 11.008 20.344 8.73602 19.448 7.23202C18.552 5.72802 17.016 4.97602 14.84 4.97602C13.592 4.97602 12.776 5.24802 12.392 5.79202C12.04 6.33602 11.864 7.44002 11.864 9.10402V32.624C11.864 33.872 11.992 34.8 12.248 35.408C12.504 36.016 13 36.416 13.736 36.608C14.472 36.8 15.56 36.912 17 36.944V38C16.008 37.968 14.728 37.936 13.16 37.904C11.592 37.872 9.94396 37.856 8.21596 37.856C6.83996 37.856 5.49596 37.872 4.18396 37.904C2.87196 37.936 1.68796 37.968 0.631958 38V37.04C1.65596 36.976 2.42396 36.848 2.93596 36.656C3.44796 36.464 3.78396 36.08 3.94396 35.504C4.13596 34.928 4.23196 34.064 4.23196 32.912V9.10402C4.23196 7.92002 4.13596 7.05602 3.94396 6.51202C3.78396 5.93602 3.43196 5.55202 2.88796 5.36002C2.37596 5.13602 1.62396 5.00802 0.631958 4.97602V4.01602Z" fill="#0F0F0F"/>
<path d="M42.536 12.512C45.352 12.512 47.56 13.344 49.16 15.008C50.76 16.672 51.56 19.392 51.56 23.168H35.768L35.672 22.256H45.512C45.544 20.688 45.448 19.248 45.224 17.936C45 16.592 44.648 15.52 44.168 14.72C43.688 13.92 43.048 13.52 42.248 13.52C41.128 13.52 40.168 14.224 39.368 15.632C38.6 17.04 38.136 19.376 37.976 22.64L38.12 22.928C38.088 23.312 38.056 23.712 38.024 24.128C38.024 24.544 38.024 24.976 38.024 25.424C38.024 27.632 38.328 29.424 38.936 30.8C39.576 32.176 40.376 33.184 41.336 33.824C42.296 34.432 43.272 34.736 44.264 34.736C44.936 34.736 45.624 34.64 46.328 34.448C47.064 34.224 47.8 33.84 48.536 33.296C49.272 32.72 49.96 31.92 50.6 30.896L51.464 31.184C51.08 32.4 50.472 33.584 49.64 34.736C48.808 35.888 47.752 36.832 46.472 37.568C45.192 38.304 43.656 38.672 41.864 38.672C39.688 38.672 37.768 38.208 36.104 37.28C34.44 36.352 33.128 34.944 32.168 33.056C31.24 31.168 30.776 28.768 30.776 25.856C30.776 22.88 31.272 20.4 32.264 18.416C33.288 16.432 34.68 14.96 36.44 14C38.232 13.008 40.264 12.512 42.536 12.512Z" fill="#0F0F0F"/>
<path d="M77.9555 0.416016V32.72C77.9555 34.16 78.1795 35.232 78.6275 35.936C79.0755 36.608 79.8755 36.944 81.0275 36.944V37.952C80.0355 37.856 79.0435 37.808 78.0515 37.808C76.7075 37.808 75.4435 37.856 74.2595 37.952C73.1075 38.048 72.0355 38.224 71.0435 38.48V6.17602C71.0435 4.73602 70.8195 3.68002 70.3715 3.00802C69.9555 2.30402 69.1555 1.95202 67.9715 1.95202V0.944017C68.9955 1.04002 69.9875 1.08802 70.9475 1.08802C72.2595 1.08802 73.5075 1.04002 74.6915 0.944017C75.8755 0.816017 76.9635 0.640017 77.9555 0.416016ZM65.7155 12.512C67.1235 12.512 68.3555 12.752 69.4115 13.232C70.4995 13.68 71.3475 14.448 71.9555 15.536L71.3795 16.064C70.9635 15.296 70.4035 14.752 69.6995 14.432C69.0275 14.08 68.3075 13.904 67.5395 13.904C65.9075 13.904 64.6115 14.864 63.6515 16.784C62.6915 18.672 62.2275 21.6 62.2595 25.568C62.2595 28.288 62.4355 30.464 62.7875 32.096C63.1715 33.696 63.6995 34.848 64.3715 35.552C65.0755 36.256 65.8755 36.608 66.7715 36.608C67.8595 36.608 68.8355 36.176 69.6995 35.312C70.5635 34.448 71.0275 33.28 71.0915 31.808L71.3315 33.488C70.8515 35.184 70.0675 36.48 68.9795 37.376C67.9235 38.24 66.5315 38.672 64.8035 38.672C62.9155 38.672 61.2195 38.208 59.7155 37.28C58.2435 36.352 57.0915 34.928 56.2595 33.008C55.4275 31.056 55.0115 28.544 55.0115 25.472C55.0115 22.56 55.4755 20.16 56.4035 18.272C57.3315 16.352 58.5955 14.912 60.1955 13.952C61.8275 12.992 63.6675 12.512 65.7155 12.512Z" fill="#0F0F0F"/>
<path d="M99.539 12.512C100.563 12.512 101.395 12.736 102.035 13.184C102.675 13.6 103.139 14.144 103.427 14.816C103.747 15.488 103.907 16.192 103.907 16.928C103.907 18.112 103.555 19.088 102.851 19.856C102.179 20.592 101.283 20.96 100.163 20.96C99.043 20.96 98.163 20.688 97.523 20.144C96.915 19.568 96.611 18.816 96.611 17.888C96.611 16.992 96.803 16.256 97.187 15.68C97.603 15.072 98.115 14.56 98.723 14.144C98.275 14.016 97.827 14.032 97.379 14.192C96.771 14.288 96.195 14.544 95.651 14.96C95.107 15.344 94.643 15.84 94.259 16.448C93.875 17.024 93.571 17.664 93.347 18.368C93.123 19.04 93.011 19.696 93.011 20.336V33.056C93.011 34.592 93.379 35.632 94.115 36.176C94.883 36.72 96.019 36.992 97.523 36.992V38C96.787 37.968 95.715 37.936 94.307 37.904C92.899 37.84 91.427 37.808 89.891 37.808C88.611 37.808 87.315 37.84 86.003 37.904C84.691 37.936 83.699 37.968 83.027 38V36.992C84.147 36.992 84.931 36.752 85.379 36.272C85.859 35.792 86.099 34.88 86.099 33.536V18.416C86.099 16.976 85.875 15.92 85.427 15.248C85.011 14.544 84.211 14.192 83.027 14.192V13.184C84.051 13.28 85.043 13.328 86.003 13.328C87.347 13.328 88.595 13.28 89.747 13.184C90.931 13.056 92.019 12.88 93.011 12.656V17.12C93.395 16.256 93.907 15.472 94.547 14.768C95.187 14.064 95.923 13.52 96.755 13.136C97.587 12.72 98.515 12.512 99.539 12.512Z" fill="#0F0F0F"/>
<path d="M117.161 12.512C119.497 12.512 121.545 12.944 123.305 13.808C125.065 14.672 126.441 16.064 127.433 17.984C128.425 19.904 128.921 22.448 128.921 25.616C128.921 28.784 128.425 31.328 127.433 33.248C126.441 35.136 125.065 36.512 123.305 37.376C121.545 38.24 119.497 38.672 117.161 38.672C114.889 38.672 112.857 38.24 111.065 37.376C109.305 36.512 107.913 35.136 106.889 33.248C105.897 31.328 105.401 28.784 105.401 25.616C105.401 22.448 105.897 19.904 106.889 17.984C107.913 16.064 109.305 14.672 111.065 13.808C112.857 12.944 114.889 12.512 117.161 12.512ZM117.161 13.472C115.881 13.472 114.809 14.432 113.945 16.352C113.081 18.24 112.649 21.328 112.649 25.616C112.649 29.904 113.081 32.992 113.945 34.88C114.809 36.768 115.881 37.712 117.161 37.712C118.473 37.712 119.545 36.768 120.377 34.88C121.241 32.992 121.673 29.904 121.673 25.616C121.673 21.328 121.241 18.24 120.377 16.352C119.545 14.432 118.473 13.472 117.161 13.472Z" fill="#0F0F0F"/>
</svg>
